<?xml version="1.0" encoding="UTF-8" standalone="no"?>
<!-- Created with Inkscape (http://www.inkscape.org/) -->

<svg
   xmlns:dc="http://purl.org/dc/elements/1.1/"
   xmlns:cc="http://creativecommons.org/ns#"
   xmlns:rdf="http://www.w3.org/1999/02/22-rdf-syntax-ns#"
   xmlns:svg="http://www.w3.org/2000/svg"
   xmlns="http://www.w3.org/2000/svg"
   xmlns:sodipodi="http://sodipodi.sourceforge.net/DTD/sodipodi-0.dtd"
   xmlns:inkscape="http://www.inkscape.org/namespaces/inkscape"
   width="186.13966mm"
   height="42.912865mm"
   viewBox="0 0 659.55 152.05346"
   id="svg2"
   version="1.1"
   inkscape:version="0.91 r13725"
   sodipodi:docname="lh_revised2.svg"
   inkscape:export-filename="C:\Users\mdsmt\Downloads\lh_revised2.png"
   inkscape:export-xdpi="235.685"
   inkscape:export-ydpi="235.685">
  <defs
     id="defs4">
    <clipPath
       id="clip1">
      <path
         inkscape:connector-curvature="0"
         d="m 0,340.15625 481.89062,0 L 481.89062,0 0,0 0,340.15625 Z m 0,0"
         id="path4220" />
    </clipPath>
    <clipPath
       clipPathUnits="userSpaceOnUse"
       id="clipPath7186">
      <g
         id="g7188">
        <path
           style="fill:#ffffff;fill-opacity:1;fill-rule:evenodd;stroke:none;stroke-width:1.05262315px;stroke-linecap:butt;stroke-linejoin:miter;stroke-opacity:1"
           d="m 84.794583,521.06991 14.010237,0 23.34623,40.52476 -21.34623,40.52194 -16.010237,0 21.346227,-40.52194 z"
           id="path7190"
           inkscape:connector-curvature="0"
           sodipodi:nodetypes="ccccccc" />
        <path
           sodipodi:nodetypes="ccccccccc"
           style="fill:#ffffff;fill-opacity:1;fill-rule:evenodd;stroke:none;stroke-width:1.05262315px;stroke-linecap:butt;stroke-linejoin:miter;stroke-opacity:1"
           d="m 102.14081,517.01175 8.01023,-10.84724 54.69249,95.9521 -16.01024,0 -13.33999,-25.32586 -13.34225,25.32586 -16.01024,0 21.34846,-40.52194 z"
           id="path7192"
           inkscape:connector-curvature="0" />
        <path
           style="fill:#ffffff;fill-opacity:1;fill-rule:evenodd;stroke:none;stroke-width:1.05262315px;stroke-linecap:butt;stroke-linejoin:miter;stroke-opacity:1"
           d="m 139.94069,548.53025 38.40551,0 0,12.60994 -30.72442,0 -7.68109,-12.60994 z"
           id="path7194"
           inkscape:connector-curvature="0" />
        <path
           style="fill:#ffffff;fill-opacity:1;fill-rule:evenodd;stroke:none;stroke-width:1.05262315px;stroke-linecap:butt;stroke-linejoin:miter;stroke-opacity:1"
           d="m 150.61272,567.44386 26.90505,0 0,12.60732 -19.78966,0 z"
           id="path7196"
           inkscape:connector-curvature="0"
           sodipodi:nodetypes="ccccc" />
      </g>
    </clipPath>
  </defs>
  <sodipodi:namedview
     id="base"
     pagecolor="#ffffff"
     bordercolor="#666666"
     borderopacity="1.0"
     inkscape:pageopacity="0.0"
     inkscape:pageshadow="2"
     inkscape:zoom="0.70710678"
     inkscape:cx="512.42856"
     inkscape:cy="361.49986"
     inkscape:document-units="px"
     inkscape:current-layer="layer1"
     showgrid="false"
     showguides="false"
     inkscape:window-width="1920"
     inkscape:window-height="1057"
     inkscape:window-x="-8"
     inkscape:window-y="-8"
     inkscape:window-maximized="1"
     fit-margin-top="3"
     fit-margin-left="3"
     fit-margin-right="3"
     fit-margin-bottom="3" />
  <metadata
     id="metadata7">
    <rdf:RDF>
      <cc:Work
         rdf:about="">
        <dc:format>image/svg+xml</dc:format>
        <dc:type
           rdf:resource="http://purl.org/dc/dcmitype/StillImage" />
        <dc:title></dc:title>
      </cc:Work>
    </rdf:RDF>
  </metadata>
  <g
     inkscape:label="Layer 1"
     inkscape:groupmode="layer"
     id="layer1"
     transform="translate(-81.531688,-469.11796)">
    <g
       transform="translate(-121.00001,52.939233)"
       id="text4830"
       style="font-style:normal;font-variant:normal;font-weight:bold;font-stretch:normal;font-size:90px;line-height:125%;font-family:'Titillium Web';-inkscape-font-specification:'Titillium Web, Bold';text-align:start;letter-spacing:0px;word-spacing:0px;writing-mode:lr-tb;text-anchor:start;fill:#00872a;fill-opacity:1;stroke:none;stroke-width:1px;stroke-linecap:butt;stroke-linejoin:miter;stroke-opacity:1">
      <path
         style="fill:#00872a;fill-opacity:1"
         inkscape:connector-curvature="0"
         id="path4877"
         d="m 593.64984,533.48008 0,-32.97577 -28.38668,0 0,32.97577 -15.48364,0 0,-79.51602 15.48364,0 0,32.50802 28.38668,0 0,-32.50802 15.48364,0 0,79.51602 -15.48364,0 z" />
      <path
         style="fill:#00872a;fill-opacity:1"
         inkscape:connector-curvature="0"
         id="path4879"
         d="m 658.99691,493.25432 0,24.32254 q 0.2244,2.80646 0.8976,3.97581 0.6732,1.05241 2.80501,1.52016 l -0.4488,11.81046 q -5.72222,0 -9.20043,-0.81855 -3.36601,-0.81854 -6.84422,-3.27419 -8.07842,4.09274 -16.49344,4.09274 -17.39105,0 -17.39105,-19.17739 0,-9.35482 4.82461,-13.21368 4.82462,-3.97581 14.81044,-4.67741 l 12.00544,-0.9355 0,-3.62499 q 0,-3.62498 -1.57081,-4.91128 -1.5708,-1.40322 -5.04901,-1.40322 l -21.09366,0.93548 -0.4488,-10.87498 q 12.00543,-3.39114 22.77666,-3.39114 10.88343,0 15.59584,4.67743 4.82462,4.6774 4.82462,14.96771 z m -25.24507,15.43546 q -6.28322,0.58469 -6.28322,7.01612 0,6.43145 5.49782,6.43145 4.26361,0 9.31262,-1.40323 l 1.68301,-0.46774 0,-12.51208 -10.21023,0.93548 z" />
      <path
         style="fill:#00872a;fill-opacity:1"
         inkscape:connector-curvature="0"
         id="path4881"
         d="m 709.08473,489.62934 q -13.91284,-1.87097 -19.52285,-1.87097 -5.49782,0 -7.18082,1.05241 -1.57081,1.05243 -1.57081,3.39113 0,2.22176 2.13181,3.15725 2.24401,0.81854 11.22003,2.57258 9.08822,1.63709 12.90303,5.49596 3.81482,3.85886 3.81482,12.51207 0,18.94352 -22.55227,18.94352 -7.40522,0 -17.95204,-2.10483 l -3.59041,-0.70161 0.4488,-13.09676 q 13.91283,1.87097 19.29845,1.87097 5.49781,0 7.40522,-1.05242 2.0196,-1.16935 2.0196,-3.39113 0,-2.22177 -2.1318,-3.27419 -2.01961,-1.05242 -10.77123,-2.57256 -8.63942,-1.52016 -12.90304,-5.14515 -4.26361,-3.62501 -4.26361,-12.86291 0,-9.35482 6.05882,-14.03222 6.05882,-4.79436 15.59584,-4.79436 6.61982,0 18.06425,2.22177 l 3.70261,0.70162 -0.2244,12.97983 z" />
      <path
         style="fill:#00872a;fill-opacity:1"
         inkscape:connector-curvature="0"
         id="path4883"
         d="m 729.10293,533.48008 -15.03484,0 0,-81.85472 15.03484,0 0,46.54025 5.72222,-1.05242 11.10783,-22.10077 16.83005,0 -14.58604,27.71366 15.37144,30.754 -16.94225,0 -11.33223,-22.80239 -6.17102,1.05241 0,21.74998 z" />
      <path
         style="fill:#00872a;fill-opacity:1"
         inkscape:connector-curvature="0"
         id="path4885"
         d="m 776.89691,510.91156 q 0.1122,5.37902 2.69281,7.83466 2.69281,2.33871 7.62962,2.33871 10.43463,0 18.62525,-0.70161 l 3.14161,-0.35081 0.2244,11.57659 q -12.90304,3.27419 -23.33767,3.27419 -12.67863,0 -18.40084,-7.01612 -5.72222,-7.01611 -5.72222,-22.80238 0,-31.45561 24.79627,-31.45561 24.45966,0 24.45966,26.42739 l -1.122,10.87499 -32.98689,0 z m 19.29845,-11.9274 q 0,-7.01612 -2.1318,-9.70564 -2.13181,-2.80644 -7.51742,-2.80644 -5.27342,0 -7.51742,2.92337 -2.13181,2.80646 -2.24401,9.58871 l 19.41065,0 z" />
      <path
         style="fill:#00872a;fill-opacity:1"
         inkscape:connector-curvature="0"
         id="path4887"
         d="m 816.19394,533.48008 0,-81.85472 15.03484,0 0,81.85472 -15.03484,0 z" />
      <path
         style="fill:#00872a;fill-opacity:1"
         inkscape:connector-curvature="0"
         id="path4889"
         d="m 836.4169,533.48008 0,-81.85472 15.03484,0 0,81.85472 -15.03484,0 z" />
    </g>
    <path
       style="fill:#0264c0;fill-opacity:1;fill-rule:evenodd;stroke:none;stroke-width:1.05262315px;stroke-linecap:butt;stroke-linejoin:miter;stroke-opacity:1"
       d="M 59.990234,10.630859 C 54.173316,21.067707 46.657394,32.271636 39.59375,43.375 l 45.373047,79.60352 c 4.666674,-3.15931 8.700176,-7.21939 11.673828,-12.04493 l -13.078125,0 -7.115234,-12.607418 24.998044,0 c 0.26827,-1.521339 0.44649,-3.086134 0.52344,-4.69336 0.0194,-0.528607 0.008,-1.068833 -0.004,-1.609374 l -28.507809,0 -7.68164,-12.609376 33.716797,0 C 92.505251,58.605472 72.389306,32.877514 59.990234,10.630859 Z M 32.216797,55.351562 c -0.968127,1.637942 -1.900951,3.264431 -2.806641,4.88086 L 47.986328,92.478516 32.779297,121.34766 c 1.252735,0.97118 2.556275,1.87737 3.910156,2.70703 L 53.324219,92.478516 32.216797,55.351562 Z m -9.798828,18.980469 c -2.902037,6.972944 -4.61497,13.505235 -4.402344,19.300781 0.291245,6.082803 2.013151,11.557818 4.751953,16.326168 L 31.976562,92.478516 22.417969,74.332031 Z m 38.910156,33.341799 -11.492187,21.81445 c 3.341504,0.80593 6.75804,1.24152 10.154296,1.25977 4.194017,-0.0225 8.421216,-0.67523 12.496094,-1.88867 L 61.328125,107.67383 Z"
       id="path6853"
       transform="translate(74.164662,469.11702)"
       inkscape:connector-curvature="0" />
    <path
       inkscape:connector-curvature="0"
       id="path7178"
       d="m 134.15547,479.74694 c -15.42062,27.66803 -42.79313,60.73047 -41.975971,83.00381 1.085444,22.67002 21.923071,37.00723 41.975971,37.11498 20.05291,-0.10779 40.89193,-14.44496 41.97737,-37.11498 0.81718,-22.27334 -26.55672,-55.33578 -41.97737,-83.00381 z"
       style="fill:#ffffff;fill-opacity:1;fill-rule:evenodd;stroke:none;stroke-width:1.05262315px;stroke-linecap:butt;stroke-linejoin:miter;stroke-opacity:1"
       clip-path="url(#clipPath7186)" />
    <g
       transform="matrix(1.24667,0,0,1.24667,-75.199562,-49.505648)"
       id="text4859"
       style="font-style:normal;font-variant:normal;font-weight:600;font-stretch:normal;font-size:90px;line-height:125%;font-family:'Titillium Web';-inkscape-font-specification:'Titillium Web, Semi-Bold';text-align:start;letter-spacing:0px;word-spacing:0px;writing-mode:lr-tb;text-anchor:start;fill:#0264c0;fill-opacity:1;stroke:none;stroke-width:1px;stroke-linecap:butt;stroke-linejoin:miter;stroke-opacity:1">
      <path
         inkscape:connector-curvature="0"
         id="path4864"
         style="font-style:normal;font-variant:normal;font-weight:600;font-stretch:normal;font-size:90px;line-height:125%;font-family:'Titillium Web';-inkscape-font-specification:'Titillium Web, Semi-Bold';text-align:start;writing-mode:lr-tb;text-anchor:start;fill:#0264c0;fill-opacity:1"
         d="m 245.99829,510.09816 -34.56,0 0,-61.65 9.99,0 0,52.74 24.57,0 0,8.91 z" />
      <path
         inkscape:connector-curvature="0"
         id="path4866"
         style="font-style:normal;font-variant:normal;font-weight:600;font-stretch:normal;font-size:90px;line-height:125%;font-family:'Titillium Web';-inkscape-font-specification:'Titillium Web, Semi-Bold';text-align:start;writing-mode:lr-tb;text-anchor:start;fill:#0264c0;fill-opacity:1"
         d="m 249.55594,510.09816 0,-45 9.81,0 0,45 -9.81,0 z m 0,-52.65 0,-10.35 9.81,0 0,10.35 -9.81,0 z" />
      <path
         inkscape:connector-curvature="0"
         id="path4868"
         style="font-style:normal;font-variant:normal;font-weight:600;font-stretch:normal;font-size:90px;line-height:125%;font-family:'Titillium Web';-inkscape-font-specification:'Titillium Web, Semi-Bold';text-align:start;writing-mode:lr-tb;text-anchor:start;fill:#0264c0;fill-opacity:1"
         d="m 280.56359,511.08816 q -9.27,0 -13.5,-5.22 -4.14,-5.22 -4.14,-18.27 0,-13.14 4.86,-18.27 4.95,-5.22 17.01,-5.22 4.41,0 13.5,0.81 l 2.97,0.27 0,64.26 -9.72,0 0,-21.06 q -6.03,2.7 -10.98,2.7 z m 4.23,-38.52 q -7.11,0 -9.63,3.6 -2.43,3.51 -2.43,11.52 0,8.01 2.16,11.34 2.25,3.33 6.84,3.33 4.23,0 8.46,-1.35 l 1.35,-0.45 0,-27.63 q -4.32,-0.36 -6.75,-0.36 z" />
      <path
         inkscape:connector-curvature="0"
         id="path4870"
         style="font-style:normal;font-variant:normal;font-weight:600;font-stretch:normal;font-size:90px;line-height:125%;font-family:'Titillium Web';-inkscape-font-specification:'Titillium Web, Semi-Bold';text-align:start;writing-mode:lr-tb;text-anchor:start;fill:#0264c0;fill-opacity:1"
         d="m 332.54123,465.09816 9.72,0 0,45 -9.72,0 0,-2.79 q -6.57,3.78 -12.15,3.78 -9.27,0 -12.42,-4.95 -3.15,-5.04 -3.15,-17.55 l 0,-23.49 9.81,0 0,23.58 q 0,8.1 1.35,10.89 1.35,2.79 6.3,2.79 4.86,0 8.91,-1.8 l 1.35,-0.54 0,-34.92 z" />
      <path
         inkscape:connector-curvature="0"
         id="path4872"
         style="font-style:normal;font-variant:normal;font-weight:600;font-stretch:normal;font-size:90px;line-height:125%;font-family:'Titillium Web';-inkscape-font-specification:'Titillium Web, Semi-Bold';text-align:start;writing-mode:lr-tb;text-anchor:start;fill:#0264c0;fill-opacity:1"
         d="m 345.81888,510.09816 0,-45 9.81,0 0,45 -9.81,0 z m 0,-52.65 0,-10.35 9.81,0 0,10.35 -9.81,0 z" />
      <path
         inkscape:connector-curvature="0"
         id="path4874"
         style="font-style:normal;font-variant:normal;font-weight:600;font-stretch:normal;font-size:90px;line-height:125%;font-family:'Titillium Web';-inkscape-font-specification:'Titillium Web, Semi-Bold';text-align:start;writing-mode:lr-tb;text-anchor:start;fill:#0264c0;fill-opacity:1"
         d="m 397.97652,446.37816 0,63.72 -9.72,0 0,-2.34 q -6.57,3.33 -12.06,3.33 -8.82,0 -12.96,-5.31 -4.05,-5.31 -4.05,-17.82 0,-12.51 4.5,-18.18 4.59,-5.67 14.22,-5.67 3.24,0 10.26,1.17 l 0,-18.9 9.81,0 z m -11.34,54.36 1.53,-0.63 0,-26.64 q -5.4,-0.9 -9.99,-0.9 -9.09,0 -9.09,15.12 0,8.28 2.07,11.52 2.16,3.15 6.75,3.15 4.59,0 8.73,-1.62 z" />
    </g>
  </g>
</svg>
